<?xml version="1.0" encoding="UTF-8" standalone="no"?>
<svg
   xmlns:dc="http://purl.org/dc/elements/1.1/"
   xmlns:cc="http://creativecommons.org/ns#"
   xmlns:rdf="http://www.w3.org/1999/02/22-rdf-syntax-ns#"
   xmlns:svg="http://www.w3.org/2000/svg"
   xmlns="http://www.w3.org/2000/svg"
   xmlns:sodipodi="http://sodipodi.sourceforge.net/DTD/sodipodi-0.dtd"
   xmlns:inkscape="http://www.inkscape.org/namespaces/inkscape"
   fill="#1A1A1A"
   version="1.1"
   viewBox="8 0 48 63.999000549316406"
   x="0px"
   y="0px"
   id="svg6"
   sodipodi:docname="logo.svg"
   inkscape:version="0.92.5 (2060ec1f9f, 2020-04-08)">
  <metadata
     id="metadata12">
    <rdf:RDF>
      <cc:Work
         rdf:about="">
        <dc:format>image/svg+xml</dc:format>
        <dc:type
           rdf:resource="http://purl.org/dc/dcmitype/StillImage" />
      </cc:Work>
    </rdf:RDF>
  </metadata>
  <defs
     id="defs10" />
  <sodipodi:namedview
     pagecolor="#ffffff"
     bordercolor="#666666"
     borderopacity="1"
     objecttolerance="10"
     gridtolerance="10"
     guidetolerance="10"
     inkscape:pageopacity="0"
     inkscape:pageshadow="2"
     inkscape:window-width="1920"
     inkscape:window-height="1017"
     id="namedview8"
     showgrid="false"
     inkscape:zoom="3.6875576"
     inkscape:cx="24"
     inkscape:cy="31.9995"
     inkscape:window-x="-8"
     inkscape:window-y="-8"
     inkscape:window-maximized="1"
     inkscape:current-layer="svg6" />
  <title
     id="title2">book-bookmark</title>
  <path
     d="M13.333 0c-2.946 0-5.333 2.4-5.333 5.333v48c0 2.933 2.388 5.333 5.333 5.333h5.333v5.333l6.667-5.333 6.667 5.333v-5.333h18.667c2.947 0 5.333-2.4 5.333-5.333v-2.667c0 2.933-2.387 5.333-5.333 5.333h-18.667v-5.333h-13.333v5.333h-4c-2.209 0-4-1.867-4-4 0-2.4 1.791-4 4-4h36c2.947 0 5.333-2.4 5.333-5.333v-37.333c0-2.933-2.387-5.333-5.333-5.333h-37.333z"
     id="path4"
     style="fill:#e2cf57;fill-opacity:1" />
</svg>
