<?xml version="1.0" encoding="UTF-8" standalone="no"?>
<svg
   xmlns:dc="http://purl.org/dc/elements/1.1/"
   xmlns:cc="http://creativecommons.org/ns#"
   xmlns:rdf="http://www.w3.org/1999/02/22-rdf-syntax-ns#"
   xmlns:svg="http://www.w3.org/2000/svg"
   xmlns="http://www.w3.org/2000/svg"
   xmlns:xlink="http://www.w3.org/1999/xlink"
   xmlns:sodipodi="http://sodipodi.sourceforge.net/DTD/sodipodi-0.dtd"
   xmlns:inkscape="http://www.inkscape.org/namespaces/inkscape"
   id="cc774093-8b64-45c7-8077-699a43d4914b"
   data-name="Layer 1"
   width="1114"
   height="1078"
   viewBox="0 0 1114 1078"
   version="1.1"
   sodipodi:docname="undraw_docs.svg"
   inkscape:version="0.92.5 (2060ec1f9f, 2020-04-08)">
  <metadata
     id="metadata83">
    <rdf:RDF>
      <cc:Work
         rdf:about="">
        <dc:format>image/svg+xml</dc:format>
        <dc:type
           rdf:resource="http://purl.org/dc/dcmitype/StillImage" />
        <dc:title>files1</dc:title>
      </cc:Work>
    </rdf:RDF>
  </metadata>
  <sodipodi:namedview
     pagecolor="#ffffff"
     bordercolor="#666666"
     borderopacity="1"
     objecttolerance="10"
     gridtolerance="10"
     guidetolerance="10"
     inkscape:pageopacity="0"
     inkscape:pageshadow="2"
     inkscape:window-width="1920"
     inkscape:window-height="1017"
     id="namedview81"
     showgrid="false"
     inkscape:zoom="0.30325616"
     inkscape:cx="407"
     inkscape:cy="389.10999"
     inkscape:window-x="-8"
     inkscape:window-y="-8"
     inkscape:window-maximized="1"
     inkscape:current-layer="cc774093-8b64-45c7-8077-699a43d4914b" />
  <defs
     id="defs20">
    <linearGradient
       id="29b91a8c-5031-4728-9934-4de601869dbd"
       x1="253.25999"
       y1="778.21997"
       x2="253.25999"
       y2="105.1"
       gradientUnits="userSpaceOnUse">
      <stop
         offset="0.01"
         stop-color="gray"
         stop-opacity="0.25"
         id="stop2" />
      <stop
         offset="0.54"
         stop-color="gray"
         stop-opacity="0.12"
         id="stop4" />
      <stop
         offset="1"
         stop-color="gray"
         stop-opacity="0.1"
         id="stop6" />
    </linearGradient>
    <linearGradient
       id="1256144c-81fa-4390-be21-e94fb20836e2"
       x1="49.759998"
       y1="202.38"
       x2="49.759998"
       y2="112.93"
       gradientUnits="userSpaceOnUse">
      <stop
         offset="0"
         stop-color="#b3b3b3"
         stop-opacity="0.25"
         id="stop9" />
      <stop
         offset="0.54"
         stop-color="#b3b3b3"
         stop-opacity="0.1"
         id="stop11" />
      <stop
         offset="1"
         stop-color="#b3b3b3"
         stop-opacity="0.05"
         id="stop13" />
    </linearGradient>
    <linearGradient
       id="8f0ddb95-6166-4bb1-9b4d-46cd9e3d30e6"
       x1="408.67999"
       y1="722.31"
       x2="408.67999"
       y2="49.200001"
       xlink:href="#29b91a8c-5031-4728-9934-4de601869dbd" />
    <linearGradient
       id="2acd927f-116a-42d0-926b-2e100ad401a0"
       x1="205.17999"
       y1="146.48"
       x2="205.17999"
       y2="57.02"
       xlink:href="#1256144c-81fa-4390-be21-e94fb20836e2" />
    <linearGradient
       id="dd98f1d5-faf2-451f-bb12-7f13808eec29"
       x1="560.73999"
       y1="673.12"
       x2="560.73999"
       y2="0"
       xlink:href="#29b91a8c-5031-4728-9934-4de601869dbd" />
    <linearGradient
       id="523444de-12f9-4e88-a28a-f69f2aefc1da"
       x1="357.23999"
       y1="97.279999"
       x2="357.23999"
       y2="7.8299999"
       xlink:href="#1256144c-81fa-4390-be21-e94fb20836e2" />
    <linearGradient
       inkscape:collect="always"
       xlink:href="#29b91a8c-5031-4728-9934-4de601869dbd"
       id="linearGradient890"
       gradientUnits="userSpaceOnUse"
       x1="253.25999"
       y1="778.21997"
       x2="253.25999"
       y2="105.1" />
    <linearGradient
       inkscape:collect="always"
       xlink:href="#1256144c-81fa-4390-be21-e94fb20836e2"
       id="linearGradient892"
       gradientUnits="userSpaceOnUse"
       x1="49.759998"
       y1="202.38"
       x2="49.759998"
       y2="112.93" />
  </defs>
  <title
     id="title22">files1</title>
  <polygon
     points="0,778.22 0,189.97 76.53,105.1 506.51,105.1 506.51,778.22 "
     id="polygon24"
     style="fill:url(#linearGradient890)"
     transform="translate(150,149.89)" />
  <polygon
     points="8.95,760.33 8.95,194.56 82.94,112.93 498.69,112.93 498.69,760.33 "
     id="polygon26"
     style="fill:#fafafa"
     transform="translate(150,149.89)" />
  <rect
     x="206.75998"
     y="332.70001"
     width="238.59"
     height="40.25"
     id="rect28"
     style="fill:#e0e0e0" />
  <rect
     x="207.24002"
     y="442.84003"
     width="174.84"
     height="40.25"
     id="rect30"
     style="fill:#e0e0e0" />
  <rect
     x="207.24002"
     y="608.32001"
     width="392.17999"
     height="147.59"
     id="rect32"
     style="fill:#e2cf57" />
  <rect
     x="510.54999"
     y="333.26001"
     width="88.870003"
     height="40.25"
     id="rect34"
     style="fill:#f5f5f5" />
  <rect
     x="510.54999"
     y="395.88"
     width="88.870003"
     height="40.25"
     id="rect36"
     style="fill:#f5f5f5" />
  <polygon
     points="90.57,202.38 8.95,202.38 8.95,194.56 82.74,112.93 90.57,112.93 "
     id="polygon38"
     style="fill:url(#linearGradient892)"
     transform="translate(150,149.89)" />
  <polygon
     points="82.74,112.93 82.74,194.56 8.75,194.56 "
     id="polygon40"
     style="fill:#eeeeee"
     transform="translate(150,149.89)" />
  <polygon
     points="155.42,722.31 155.42,134.06 231.95,49.2 661.93,49.2 661.93,722.31 "
     id="polygon42"
     style="fill:url(#8f0ddb95-6166-4bb1-9b4d-46cd9e3d30e6)"
     transform="translate(150,149.89)" />
  <polygon
     points="164.37,704.42 164.37,138.65 238.36,57.02 654.11,57.02 654.11,704.42 "
     id="polygon44"
     style="fill:#fafafa"
     transform="translate(150,149.89)" />
  <rect
     x="362.17999"
     y="276.79999"
     width="238.59"
     height="40.25"
     id="rect46"
     style="fill:#e0e0e0" />
  <rect
     x="362.66"
     y="386.92999"
     width="174.84"
     height="40.25"
     id="rect48"
     style="fill:#e0e0e0" />
  <rect
     x="362.66"
     y="552.42004"
     width="392.17999"
     height="147.59"
     id="rect50"
     style="fill:#e2cf57" />
  <rect
     x="665.96997"
     y="277.35999"
     width="88.870003"
     height="40.25"
     id="rect52"
     style="fill:#f5f5f5" />
  <rect
     x="665.96997"
     y="339.97003"
     width="88.870003"
     height="40.25"
     id="rect54"
     style="fill:#f5f5f5" />
  <polygon
     points="245.99,146.47 164.37,146.47 164.37,138.65 238.16,57.02 245.99,57.02 "
     id="polygon56"
     style="fill:url(#2acd927f-116a-42d0-926b-2e100ad401a0)"
     transform="translate(150,149.89)" />
  <polygon
     points="238.16,57.02 238.16,138.65 164.17,138.65 "
     id="polygon58"
     style="fill:#eeeeee"
     transform="translate(150,149.89)" />
  <polygon
     points="307.49,673.12 307.49,84.87 384.01,0 814,0 814,673.12 "
     id="polygon60"
     style="fill:url(#dd98f1d5-faf2-451f-bb12-7f13808eec29)"
     transform="translate(150,149.89)" />
  <polygon
     points="316.43,655.23 316.43,89.45 390.43,7.83 806.17,7.83 806.17,655.23 "
     id="polygon62"
     style="fill:#ffffff"
     transform="translate(150,149.89)" />
  <rect
     x="514.25"
     y="227.59998"
     width="238.59"
     height="40.25"
     id="rect64"
     style="fill:#e0e0e0" />
  <rect
     x="514.72998"
     y="337.73999"
     width="174.84"
     height="40.25"
     id="rect66"
     style="fill:#e0e0e0" />
  <rect
     x="514.72998"
     y="503.21997"
     width="392.17999"
     height="147.59"
     id="rect68"
     style="fill:#e2cf57" />
  <rect
     x="818.03998"
     y="228.15997"
     width="88.870003"
     height="40.25"
     id="rect70"
     style="fill:#e0e0e0" />
  <rect
     x="818.03998"
     y="290.77002"
     width="88.870003"
     height="40.25"
     id="rect72"
     style="fill:#e0e0e0" />
  <rect
     x="818.03998"
     y="353.39001"
     width="88.870003"
     height="40.25"
     id="rect74"
     style="fill:#e0e0e0" />
  <polygon
     points="398.06,97.28 316.43,97.28 316.43,89.45 390.23,7.83 398.06,7.83 "
     id="polygon76"
     style="fill:url(#523444de-12f9-4e88-a28a-f69f2aefc1da)"
     transform="translate(150,149.89)" />
  <polygon
     points="390.23,7.83 390.23,89.45 316.23,89.45 "
     id="polygon78"
     style="fill:#eeeeee"
     transform="translate(150,149.89)" />
</svg>
