<?xml version="1.0" encoding="UTF-8"?>
<svg fill="none" version="1.1" viewBox="0 0 22 28.1" xmlns="http://www.w3.org/2000/svg">
 <g transform="translate(-5 -1.684)" filter="url(#a)">
  <path d="M6.625 1.684H25a2 2 0 0 1 2 2v22H6.625Z" fill="url(#b)"/>
  <path d="M6.625 1.684H25a2 2 0 0 1 2 2v22H6.625Z" fill="url(#c)"/>
 </g>
 <path d="M.5 24.5H22V27h-.5l-.5.5H.5Z" fill="url(#d)"/>
 <path d="M.5 24.5H22V27h-.5l-.5.5H.5Z" fill="url(#e)"/>
 <path d="M1.5 0A1.5 1.5 0 0 0 0 1.5V26h1a1 1 0 0 1 1-1h1V0Z" fill="url(#f)"/>
 <g transform="translate(-5 -1.684)" filter="url(#g)">
  <path d="M6.5 25.684a1.5 1.5 0 0 0-1.5 1.5v1a1.5 1.5 0 0 0 1.5 1.5h19.408c.653 0 1.092-.334 1.092-1H7a1 1 0 1 1 0-2h20v-1z" fill="url(#h)"/>
 </g>
 <defs>
  <linearGradient id="b" x1="17.5" x2="17.5" y1="1.684" y2="25.684" gradientUnits="userSpaceOnUse">
   <stop stop-color="#e6b72e" offset="0"/>
   <stop stop-color="#e3972f" offset="1"/>
  </linearGradient>
  <linearGradient id="c" x1="27.156" x2="25.188" y1="5.215" y2="5.497" gradientUnits="userSpaceOnUse">
   <stop stop-color="#ffe465" offset=".014"/>
   <stop stop-color="#f6be45" stop-opacity="0" offset="1"/>
  </linearGradient>
  <linearGradient id="d" x1="6.721" x2="26.819" y1="28.1" y2="28.1" gradientTransform="translate(-5 -1.684)" gradientUnits="userSpaceOnUse">
   <stop stop-color="#D5BCEB" offset="0"/>
   <stop stop-color="#DCCCED" offset="1"/>
   <stop stop-color="#E3D3F2" offset="1"/>
  </linearGradient>
  <linearGradient id="e" x1="16.25" x2="16.25" y1="26.422" y2="27.842" gradientTransform="translate(-5 -1.684)" gradientUnits="userSpaceOnUse">
   <stop stop-color="#9F84AE" offset="0"/>
   <stop stop-color="#C5B1D6" stop-opacity="0" offset="1"/>
  </linearGradient>
  <linearGradient id="f" x1="5.205" x2="7.563" y1="16.422" y2="16.434" gradientTransform="translate(-5 -1.684)" gradientUnits="userSpaceOnUse">
   <stop stop-color="#be542c" offset="0"/>
   <stop stop-color="#c87742" offset="1"/>
  </linearGradient>
  <linearGradient id="h" x1="6.431" x2="27" y1="28.648" y2="28.616" gradientUnits="userSpaceOnUse">
   <stop stop-color="#b4501c" offset="0"/>
   <stop stop-color="#c6732b" offset="1"/>
  </linearGradient>
  <filter id="a" x="6.625" y="1.684" width="20.375" height="24.1" color-interpolation-filters="sRGB" filterUnits="userSpaceOnUse">
   <feFlood flood-opacity="0" result="BackgroundImageFix"/>
   <feBlend in="SourceGraphic" in2="BackgroundImageFix" result="shape"/>
   <feColorMatrix in="SourceAlpha" result="hardAlpha" values="0 0 0 0 0 0 0 0 0 0 0 0 0 0 0 0 0 0 127 0"/>
   <feOffset dy=".1"/>
   <feGaussianBlur stdDeviation=".25"/>
   <feComposite in2="hardAlpha" k2="-1" k3="1" operator="arithmetic"/>
   <feColorMatrix values="0 0 0 0 0.839216 0 0 0 0 0.384314 0 0 0 0 0.0745098 0 0 0 1 0"/>
   <feBlend in2="shape" result="effect1_innerShadow_18_20839"/>
  </filter>
  <filter id="g" x="5" y="25.684" width="22" height="4.1" color-interpolation-filters="sRGB" filterUnits="userSpaceOnUse">
   <feFlood flood-opacity="0" result="BackgroundImageFix"/>
   <feBlend in="SourceGraphic" in2="BackgroundImageFix" result="shape"/>
   <feColorMatrix in="SourceAlpha" result="hardAlpha" values="0.0000000 0.0000000 0.0000000 0.0000000 0.0000000 0.0000000 0.0000000 0.0000000 0.0000000 0.0000000 0.0000000 0.0000000 0.0000000 0.0000000 0.0000000 0.0000000 0.0000000 0.0000000 127.00000 0.0000000 "/>
   <feOffset dy=".1"/>
   <feGaussianBlur stdDeviation=".15"/>
   <feComposite in2="hardAlpha" k2="-1" k3="1" operator="arithmetic"/>
   <feColorMatrix values="0.0000000 0.0000000 0.0000000 0.0000000 0.64000000 0.0000000 0.0000000 0.0000000 0.0000000 0.30000000 0.0000000 0.0000000 0.0000000 0.0000000 0.24000000 0.0000000 0.0000000 0.0000000 1.0000000 0.0000000 "/>
   <feBlend in2="shape" result="effect1_innerShadow_18_20839"/>
  </filter>
 </defs>
</svg>
